<svg width="149" height="32" viewBox="0 0 149 32" fill="none" xmlns="http://www.w3.org/2000/svg">
<path d="M144 0H31V32H144C146.761 32 149 29.7614 149 27V5C149 2.23858 146.761 0 144 0Z" fill="#0F1418"/>
<path d="M31 0H5C2.23858 0 0 2.23858 0 5V27C0 29.7614 2.23858 32 5 32H31V0Z" fill="white"/>
<path d="M17.6785 19.4485L13.427 23.7H7.29999V17.573L11.5515 13.3215V19.4485H17.6785ZM22.7 8.30005H7.38249L11.5515 12.469H18.531V19.4485L22.7 23.6175V8.30005Z" fill="black"/>
<path d="M46.337 22H43.6197L41.9864 19.2974C41.8643 19.0923 41.7471 18.9092 41.6348 18.748C41.5225 18.5869 41.4078 18.4502 41.2906 18.3379C41.1783 18.2207 41.0587 18.1328 40.9317 18.0742C40.8096 18.0107 40.6754 17.979 40.5289 17.979H39.8917V22H37.526V11.4971H41.276C43.8248 11.4971 45.0992 12.4492 45.0992 14.3535C45.0992 14.7197 45.043 15.0591 44.9307 15.3716C44.8184 15.6792 44.6597 15.9575 44.4547 16.2065C44.2496 16.4556 44.0006 16.6704 43.7076 16.8511C43.4195 17.0317 43.0972 17.1733 42.7408 17.2759V17.3052C42.897 17.354 43.0484 17.4346 43.1949 17.5469C43.3414 17.6543 43.483 17.7812 43.6197 17.9277C43.7564 18.0742 43.8858 18.2329 44.0079 18.4038C44.1348 18.5698 44.2496 18.7334 44.3521 18.8945L46.337 22ZM39.8917 13.2695V16.1919H40.9171C41.4249 16.1919 41.8326 16.0454 42.1402 15.7524C42.4527 15.4546 42.609 15.0859 42.609 14.6465C42.609 13.7285 42.0596 13.2695 40.961 13.2695H39.8917ZM54.4198 14.5L51.3729 22.6006C50.6405 24.5488 49.537 25.5229 48.0624 25.5229C47.5009 25.5229 47.0395 25.4595 46.6781 25.3325V23.4868C46.9857 23.6675 47.3202 23.7578 47.6815 23.7578C48.2772 23.7578 48.6923 23.4771 48.9267 22.9155L49.3222 21.9854L46.2753 14.5H48.8388L50.2377 19.063C50.3256 19.3462 50.3939 19.6807 50.4428 20.0664H50.4721C50.516 19.7832 50.5966 19.4536 50.7138 19.0776L52.1273 14.5H54.4198ZM61.4699 22H54.739V21.0405L58.5036 16.2065H55.1125V14.5H61.4406V15.6426L57.8737 20.2935H61.4699V22ZM69.6407 18.9092H64.7481C64.8262 19.998 65.5122 20.5425 66.8062 20.5425C67.6314 20.5425 68.3565 20.3472 68.9815 19.9565V21.6265C68.2881 21.9976 67.3872 22.1831 66.2788 22.1831C65.0679 22.1831 64.128 21.8486 63.459 21.1797C62.7901 20.5059 62.4556 19.5684 62.4556 18.3672C62.4556 17.1221 62.8169 16.1357 63.5396 15.4082C64.2622 14.6807 65.1509 14.3169 66.2056 14.3169C67.2994 14.3169 68.1441 14.6416 68.7398 15.291C69.3404 15.9404 69.6407 16.8218 69.6407 17.9351V18.9092ZM67.4947 17.4883C67.4947 16.4141 67.0601 15.877 66.191 15.877C65.8199 15.877 65.4976 16.0308 65.2242 16.3384C64.9556 16.646 64.792 17.0293 64.7334 17.4883H67.4947ZM78.4413 22H76.1341V17.8325C76.1341 16.6704 75.7191 16.0894 74.889 16.0894C74.4886 16.0894 74.159 16.2432 73.9003 16.5508C73.6415 16.8584 73.5121 17.249 73.5121 17.7227V22H71.1976V14.5H73.5121V15.6865H73.5414C74.0931 14.7734 74.8963 14.3169 75.951 14.3169C77.6112 14.3169 78.4413 15.3472 78.4413 17.4077V22ZM85.0122 21.729V19.7515C85.73 20.1909 86.4941 20.4106 87.3047 20.4106C87.915 20.4106 88.3911 20.2666 88.7329 19.9785C89.0796 19.6855 89.2529 19.29 89.2529 18.792C89.2529 17.752 88.5181 17.2319 87.0483 17.2319C86.5698 17.2319 85.9912 17.2759 85.3125 17.3638V11.4971H91.1279V13.3867H87.29V15.4888C87.5977 15.4595 87.8882 15.4448 88.1616 15.4448C89.2407 15.4448 90.0854 15.728 90.6958 16.2944C91.3062 16.8608 91.6113 17.6226 91.6113 18.5796C91.6113 19.6392 91.2476 20.5059 90.52 21.1797C89.7925 21.8486 88.8062 22.1831 87.561 22.1831C86.5503 22.1831 85.7007 22.0317 85.0122 21.729ZM98.1456 21.729V19.7515C98.8634 20.1909 99.6276 20.4106 100.438 20.4106C101.048 20.4106 101.525 20.2666 101.866 19.9785C102.213 19.6855 102.386 19.29 102.386 18.792C102.386 17.752 101.652 17.2319 100.182 17.2319C99.7033 17.2319 99.1246 17.2759 98.4459 17.3638V11.4971H104.261V13.3867H100.423V15.4888C100.731 15.4595 101.022 15.4448 101.295 15.4448C102.374 15.4448 103.219 15.728 103.829 16.2944C104.44 16.8608 104.745 17.6226 104.745 18.5796C104.745 19.6392 104.381 20.5059 103.653 21.1797C102.926 21.8486 101.94 22.1831 100.694 22.1831C99.6837 22.1831 98.8341 22.0317 98.1456 21.729ZM113.135 11.6069V13.5405C112.603 13.2378 112.022 13.0864 111.392 13.0864C110.616 13.0864 109.988 13.3843 109.51 13.98C109.036 14.5708 108.79 15.3643 108.77 16.3604H108.814C109.317 15.6182 110.052 15.2471 111.019 15.2471C111.897 15.2471 112.593 15.5449 113.106 16.1406C113.623 16.7363 113.882 17.5249 113.882 18.5063C113.882 19.561 113.54 20.4375 112.857 21.1357C112.173 21.834 111.304 22.1831 110.249 22.1831C109.068 22.1831 108.145 21.7559 107.481 20.9014C106.817 20.0469 106.485 18.8481 106.485 17.3052C106.485 15.4888 106.912 14.0386 107.767 12.9546C108.621 11.8657 109.781 11.3213 111.246 11.3213C112.056 11.3213 112.686 11.4165 113.135 11.6069ZM110.235 16.9609C109.81 16.9609 109.471 17.1099 109.217 17.4077C108.968 17.7056 108.843 18.0864 108.843 18.5503C108.843 19.063 108.97 19.5024 109.224 19.8687C109.483 20.23 109.825 20.4106 110.249 20.4106C110.665 20.4106 110.997 20.2495 111.246 19.9272C111.495 19.6001 111.619 19.1753 111.619 18.6528C111.619 17.5249 111.158 16.9609 110.235 16.9609ZM118.823 22.1831C116.323 22.1831 115.073 20.4277 115.073 16.917C115.073 15.0957 115.41 13.709 116.084 12.7568C116.762 11.7998 117.744 11.3213 119.028 11.3213C121.47 11.3213 122.69 13.106 122.69 16.6753C122.69 18.4526 122.356 19.8149 121.687 20.7622C121.023 21.7095 120.068 22.1831 118.823 22.1831ZM118.926 13.0864C117.925 13.0864 117.424 14.3438 117.424 16.8584C117.424 19.2266 117.915 20.4106 118.896 20.4106C119.853 20.4106 120.332 19.1899 120.332 16.7485C120.332 14.3071 119.863 13.0864 118.926 13.0864ZM127.631 22.1831C125.131 22.1831 123.881 20.4277 123.881 16.917C123.881 15.0957 124.218 13.709 124.892 12.7568C125.57 11.7998 126.552 11.3213 127.836 11.3213C130.277 11.3213 131.498 13.106 131.498 16.6753C131.498 18.4526 131.164 19.8149 130.495 20.7622C129.831 21.7095 128.876 22.1831 127.631 22.1831ZM127.733 13.0864C126.733 13.0864 126.232 14.3438 126.232 16.8584C126.232 19.2266 126.723 20.4106 127.704 20.4106C128.661 20.4106 129.14 19.1899 129.14 16.7485C129.14 14.3071 128.671 13.0864 127.733 13.0864ZM142.467 22H140.094V17.7227H135.743V22H133.377V11.4971H135.743V15.6865H140.094V11.4971H142.467V22Z" fill="white"/>
<path d="M144 0H5C2.23858 0 0 2.23858 0 5V27C0 29.7614 2.23858 32 5 32H144C146.761 32 149 29.7614 149 27V5C149 2.23858 146.761 0 144 0Z" fill="url(#paint0_linear_225_2)"/>
<defs>
<linearGradient id="paint0_linear_225_2" x1="0" y1="0" x2="0" y2="32" gradientUnits="userSpaceOnUse">
<stop stop-color="#BBBBBB" stop-opacity="0.1"/>
<stop offset="1" stop-opacity="0.1"/>
</linearGradient>
</defs>
</svg>
