<svg width="146" height="32" viewBox="0 0 146 32" fill="none" xmlns="http://www.w3.org/2000/svg">
<path d="M141 0H31V32H141C143.761 32 146 29.7614 146 27V5C146 2.23858 143.761 0 141 0Z" fill="#0F1418"/>
<path d="M31 0H5C2.23858 0 0 2.23858 0 5V27C0 29.7614 2.23858 32 5 32H31V0Z" fill="white"/>
<path d="M11.948 18.408L11.949 18.409L11.948 18.408ZM11.948 22.121V20.874C7.108 20.269 5.456 14.891 5.456 14.891C5.456 14.891 7.62 11.669 11.956 11.33V10.155C7.153 10.547 3 14.642 3 14.642C3 14.642 5.35 21.498 11.948 22.121Z" fill="#77B900"/>
<path d="M7.275 15.0531C7.275 15.0531 8.291 18.8891 11.948 19.5481V18.4081C9.89 17.7041 9.21 15.2741 9.21 15.2741C9.21 15.2741 10.412 13.8321 11.94 14.0191H11.948V12.7731C12.2123 12.7435 12.4782 12.7315 12.744 12.7371C15.252 12.7371 16.744 14.7051 16.744 14.7051L14.704 16.4331C13.794 14.8931 13.485 14.2161 11.957 14.0291V18.4091C12.328 18.5331 12.717 18.5961 13.115 18.5961C16.091 18.5961 18.865 14.7141 18.865 14.7141C18.865 14.7141 16.294 11.1881 12.372 11.3131H12.368C12.2278 11.3145 12.0878 11.3205 11.948 11.3311V12.7721L11.921 12.7751L11.944 12.7741C9.031 13.0951 7.275 15.0531 7.275 15.0531Z" fill="#77B900"/>
<path d="M27 8H11.948V10.155L12.372 10.128C17.822 9.942 21.382 14.634 21.382 14.634C21.382 14.634 17.302 19.637 13.052 19.637C12.6849 19.636 12.3185 19.6032 11.957 19.539V20.874C12.257 20.909 12.567 20.937 12.867 20.937C16.824 20.937 19.687 18.898 22.46 16.494C22.919 16.868 24.8 17.767 25.19 18.159C22.557 20.385 16.418 22.175 12.937 22.175C12.602 22.175 12.284 22.157 11.966 22.122V24H27V8Z" fill="#77B900"/>
<path d="M63.9857 22H61.2684L59.6351 19.2974C59.5131 19.0923 59.3959 18.9092 59.2836 18.748C59.1713 18.5869 59.0565 18.4502 58.9393 18.3379C58.827 18.2207 58.7074 18.1328 58.5804 18.0742C58.4584 18.0107 58.3241 17.979 58.1776 17.979H57.5404V22H55.1747V11.4971H58.9247C61.4735 11.4971 62.7479 12.4492 62.7479 14.3535C62.7479 14.7197 62.6918 15.0591 62.5795 15.3716C62.4672 15.6792 62.3085 15.9575 62.1034 16.2065C61.8983 16.4556 61.6493 16.6704 61.3563 16.8511C61.0682 17.0317 60.746 17.1733 60.3895 17.2759V17.3052C60.5458 17.354 60.6971 17.4346 60.8436 17.5469C60.9901 17.6543 61.1317 17.7812 61.2684 17.9277C61.4052 18.0742 61.5345 18.2329 61.6566 18.4038C61.7836 18.5698 61.8983 18.7334 62.0009 18.8945L63.9857 22ZM57.5404 13.2695V16.1919H58.5658C59.0736 16.1919 59.4813 16.0454 59.7889 15.7524C60.1014 15.4546 60.2577 15.0859 60.2577 14.6465C60.2577 13.7285 59.7084 13.2695 58.6097 13.2695H57.5404ZM72.7497 13.4233H69.7541V22H67.3811V13.4233H64.4001V11.4971H72.7497V13.4233ZM83.418 22H80.6128L78.8037 18.5796C78.7354 18.4526 78.6646 18.2183 78.5913 17.8765H78.562C78.5279 18.0376 78.4473 18.2817 78.3203 18.6089L76.5039 22H73.6841L77.0313 16.7485L73.9697 11.4971H76.8482L78.3496 14.6465C78.4668 14.8955 78.5718 15.1909 78.6646 15.5327H78.6939C78.7525 15.3276 78.8623 15.0225 79.0235 14.6172L80.6934 11.4971H83.3301L80.1807 16.7046L83.418 22ZM89.0954 21.6558V19.6416C89.7985 20.1543 90.6188 20.4106 91.5563 20.4106C92.1471 20.4106 92.6061 20.2837 92.9333 20.0298C93.2653 19.7759 93.4313 19.4219 93.4313 18.9678C93.4313 18.499 93.2262 18.1377 92.8161 17.8838C92.4108 17.6299 91.8517 17.5029 91.1388 17.5029H90.1647V15.7305H91.0656C92.4328 15.7305 93.1164 15.2764 93.1164 14.3682C93.1164 13.5137 92.5915 13.0864 91.5417 13.0864C90.8385 13.0864 90.1549 13.3135 89.4909 13.7676V11.8779C90.2282 11.5068 91.0876 11.3213 92.069 11.3213C93.1432 11.3213 93.9782 11.563 94.5739 12.0464C95.1745 12.5298 95.4748 13.1572 95.4748 13.9287C95.4748 15.3008 94.779 16.1602 93.3874 16.5068V16.5435C94.1296 16.6362 94.7155 16.9072 95.1452 17.3564C95.5749 17.8008 95.7897 18.3477 95.7897 18.9971C95.7897 19.9785 95.4308 20.7549 94.713 21.3262C93.9953 21.8975 93.0041 22.1831 91.7394 22.1831C90.6554 22.1831 89.7741 22.0073 89.0954 21.6558ZM101.302 22.1831C98.8017 22.1831 97.5517 20.4277 97.5517 16.917C97.5517 15.0957 97.8887 13.709 98.5625 12.7568C99.2412 11.7998 100.223 11.3213 101.507 11.3213C103.948 11.3213 105.169 13.106 105.169 16.6753C105.169 18.4526 104.834 19.8149 104.166 20.7622C103.501 21.7095 102.547 22.1831 101.302 22.1831ZM101.404 13.0864C100.403 13.0864 99.9028 14.3438 99.9028 16.8584C99.9028 19.2266 100.394 20.4106 101.375 20.4106C102.332 20.4106 102.811 19.1899 102.811 16.7485C102.811 14.3071 102.342 13.0864 101.404 13.0864ZM106.894 21.729V19.7515C107.612 20.1909 108.376 20.4106 109.187 20.4106C109.797 20.4106 110.273 20.2666 110.615 19.9785C110.962 19.6855 111.135 19.29 111.135 18.792C111.135 17.752 110.4 17.2319 108.93 17.2319C108.388 17.2319 107.763 17.2734 107.055 17.3564L107.451 11.4971H113.01V13.3867H109.216L109.07 15.4888C109.446 15.4595 109.77 15.4448 110.044 15.4448C111.123 15.4448 111.968 15.728 112.578 16.2944C113.188 16.8608 113.493 17.6226 113.493 18.5796C113.493 19.6392 113.13 20.5059 112.402 21.1797C111.675 21.8486 110.688 22.1831 109.443 22.1831C108.432 22.1831 107.583 22.0317 106.894 21.729ZM118.918 22.1831C116.418 22.1831 115.168 20.4277 115.168 16.917C115.168 15.0957 115.505 13.709 116.178 12.7568C116.857 11.7998 117.838 11.3213 119.123 11.3213C121.564 11.3213 122.785 13.106 122.785 16.6753C122.785 18.4526 122.45 19.8149 121.781 20.7622C121.117 21.7095 120.163 22.1831 118.918 22.1831ZM119.02 13.0864C118.019 13.0864 117.519 14.3438 117.519 16.8584C117.519 19.2266 118.009 20.4106 118.991 20.4106C119.948 20.4106 120.426 19.1899 120.426 16.7485C120.426 14.3071 119.958 13.0864 119.02 13.0864Z" fill="white"/>
<path d="M141 0H5C2.23858 0 0 2.23858 0 5V27C0 29.7614 2.23857 32 5 32H141C143.761 32 146 29.7614 146 27V5C146 2.23858 143.761 0 141 0Z" fill="url(#paint0_linear_223_9)"/>
<defs>
<linearGradient id="paint0_linear_223_9" x1="0" y1="0" x2="0" y2="32" gradientUnits="userSpaceOnUse">
<stop stop-color="#BBBBBB" stop-opacity="0.1"/>
<stop offset="1" stop-opacity="0.1"/>
</linearGradient>
</defs>
</svg>
