<svg width="131" height="32" viewBox="0 0 131 32" fill="none" xmlns="http://www.w3.org/2000/svg">
<path d="M126 0H31V32H126C128.761 32 131 29.7614 131 27V5C131 2.23858 128.761 0 126 0Z" fill="#0F1418"/>
<path d="M31 0H5C2.23858 0 0 2.23858 0 5V27C0 29.7614 2.23858 32 5 32H31V0Z" fill="#0067B8"/>
<path d="M5 8.02991L14.0161 6.7875V15.4991H5V8.02991ZM5 23.9701L14.0161 25.2125V16.6089H5V23.9701ZM15.008 25.3451L27 27V16.6089H15.008V25.3451ZM15.008 6.65491V15.4991H27V5L15.008 6.65491Z" fill="white"/>
<path d="M52.7061 11.4971L49.9302 22H47.3082L45.565 15.2617C45.4722 14.9102 45.4161 14.5171 45.3965 14.0825H45.3672C45.3233 14.561 45.2598 14.9541 45.1768 15.2617L43.3897 22H40.6578L37.8965 11.4971H40.482L41.9615 18.4917C42.025 18.7896 42.0713 19.1899 42.1006 19.6929H42.1446C42.1641 19.3169 42.2349 18.9067 42.357 18.4624L44.2613 11.4971H46.7955L48.5167 18.5503C48.5801 18.8091 48.6363 19.1851 48.6851 19.6782H48.7144C48.7339 19.2925 48.7852 18.9019 48.8682 18.5063L50.3184 11.4971H52.7061ZM55.4276 13.3135C55.037 13.3135 54.7172 13.1987 54.4681 12.9692C54.2191 12.7349 54.0946 12.4492 54.0946 12.1123C54.0946 11.7656 54.2191 11.4824 54.4681 11.2627C54.7172 11.043 55.037 10.9331 55.4276 10.9331C55.8231 10.9331 56.1429 11.043 56.3871 11.2627C56.6361 11.4824 56.7606 11.7656 56.7606 12.1123C56.7606 12.4639 56.6361 12.752 56.3871 12.9766C56.1429 13.2012 55.8231 13.3135 55.4276 13.3135ZM56.5702 22H54.2557V14.5H56.5702V22ZM65.9421 22H63.635V17.8325C63.635 16.6704 63.2199 16.0894 62.3898 16.0894C61.9895 16.0894 61.6599 16.2432 61.4011 16.5508C61.1423 16.8584 61.0129 17.249 61.0129 17.7227V22H58.6984V14.5H61.0129V15.6865H61.0422C61.5939 14.7734 62.3972 14.3169 63.4519 14.3169C65.112 14.3169 65.9421 15.3472 65.9421 17.4077V22ZM75.2993 22H72.9849V20.9673H72.9556C72.4282 21.7778 71.6543 22.1831 70.6338 22.1831C69.6963 22.1831 68.9419 21.8535 68.3706 21.1943C67.7993 20.5303 67.5137 19.605 67.5137 18.4185C67.5137 17.1782 67.8286 16.1846 68.4585 15.4375C69.0884 14.6904 69.9136 14.3169 70.9341 14.3169C71.9009 14.3169 72.5747 14.6636 72.9556 15.3569H72.9849V10.8965H75.2993V22ZM73.0288 18.3525V17.7886C73.0288 17.3003 72.8872 16.895 72.604 16.5728C72.3208 16.2505 71.9522 16.0894 71.4981 16.0894C70.9854 16.0894 70.585 16.292 70.2969 16.6973C70.0088 17.0977 69.8648 17.6494 69.8648 18.3525C69.8648 19.0117 70.0039 19.5195 70.2822 19.876C70.5606 20.2324 70.9463 20.4106 71.4395 20.4106C71.9082 20.4106 72.2891 20.2227 72.5821 19.8467C72.8799 19.4707 73.0288 18.9727 73.0288 18.3525ZM81.0018 22.1831C79.7518 22.1831 78.7679 21.834 78.0501 21.1357C77.3372 20.4326 76.9808 19.4805 76.9808 18.2793C76.9808 17.0391 77.3519 16.0698 78.0941 15.3716C78.8363 14.6685 79.8397 14.3169 81.1043 14.3169C82.3495 14.3169 83.326 14.6685 84.034 15.3716C84.742 16.0698 85.096 16.9951 85.096 18.1475C85.096 19.3926 84.7298 20.3765 83.9974 21.0991C83.2699 21.8218 82.2713 22.1831 81.0018 22.1831ZM81.0604 16.0894C80.5135 16.0894 80.0887 16.2773 79.786 16.6533C79.4832 17.0293 79.3319 17.5615 79.3319 18.25C79.3319 19.6904 79.9129 20.4106 81.075 20.4106C82.1834 20.4106 82.7376 19.6709 82.7376 18.1914C82.7376 16.79 82.1786 16.0894 81.0604 16.0894ZM97.6393 14.5L95.4787 22H93.047L91.9411 17.6055C91.8678 17.3125 91.8263 16.9927 91.8166 16.646H91.7726C91.7384 17.0269 91.6896 17.3369 91.6261 17.5762L90.4396 22H88.0373L85.9206 14.5H88.279L89.3117 19.3926C89.3605 19.6221 89.3971 19.9004 89.4215 20.2275H89.4655C89.4899 19.8857 89.5338 19.5977 89.5973 19.3633L90.8864 14.5H93.091L94.2482 19.3926C94.2775 19.5146 94.3117 19.7979 94.3507 20.2422H94.402C94.4264 19.959 94.4655 19.6758 94.5192 19.3926L95.4933 14.5H97.6393ZM98.4346 21.8022V19.9272C98.8154 20.1567 99.1938 20.3276 99.5698 20.4399C99.9507 20.5522 100.31 20.6084 100.646 20.6084C101.057 20.6084 101.379 20.5522 101.613 20.4399C101.853 20.3276 101.972 20.1567 101.972 19.9272C101.972 19.7808 101.918 19.6587 101.811 19.561C101.704 19.4634 101.564 19.3779 101.394 19.3047C101.228 19.2314 101.044 19.1655 100.844 19.1069C100.644 19.0483 100.451 18.9824 100.266 18.9092C99.9678 18.7969 99.7041 18.6772 99.4746 18.5503C99.25 18.4185 99.0596 18.2671 98.9033 18.0962C98.7519 17.9253 98.6348 17.7275 98.5517 17.5029C98.4736 17.2783 98.4346 17.0122 98.4346 16.7046C98.4346 16.2847 98.5249 15.9233 98.7056 15.6206C98.8911 15.3179 99.1352 15.0713 99.438 14.8809C99.7456 14.6855 100.095 14.5439 100.485 14.4561C100.881 14.3633 101.291 14.3169 101.716 14.3169C102.048 14.3169 102.385 14.3438 102.727 14.3975C103.068 14.4463 103.405 14.5195 103.737 14.6172V16.4043C103.444 16.2334 103.129 16.1064 102.792 16.0234C102.46 15.9355 102.133 15.8916 101.811 15.8916C101.66 15.8916 101.516 15.9062 101.379 15.9355C101.247 15.96 101.13 15.999 101.027 16.0527C100.925 16.1016 100.844 16.1675 100.786 16.2505C100.727 16.3286 100.698 16.4189 100.698 16.5215C100.698 16.6582 100.742 16.7754 100.83 16.873C100.917 16.9707 101.032 17.0562 101.174 17.1294C101.315 17.1978 101.472 17.2612 101.643 17.3198C101.818 17.3735 101.992 17.4297 102.163 17.4883C102.47 17.5957 102.749 17.7129 102.998 17.8398C103.247 17.9668 103.459 18.1157 103.635 18.2866C103.815 18.4575 103.952 18.6577 104.045 18.8872C104.143 19.1167 104.191 19.3901 104.191 19.7075C104.191 20.1519 104.094 20.5327 103.898 20.8501C103.708 21.1626 103.452 21.4189 103.129 21.6191C102.812 21.8145 102.443 21.9561 102.023 22.0439C101.608 22.1367 101.176 22.1831 100.727 22.1831C99.9018 22.1831 99.1377 22.0562 98.4346 21.8022ZM115.157 11.2627V22H112.85V13.8701C112.723 13.9824 112.571 14.0898 112.396 14.1924C112.225 14.29 112.042 14.3804 111.846 14.4634C111.651 14.5415 111.448 14.6099 111.238 14.6685C111.028 14.7222 110.821 14.7612 110.616 14.7856V12.8374C111.216 12.6616 111.783 12.437 112.315 12.1636C112.847 11.8901 113.328 11.5898 113.758 11.2627H115.157ZM123.965 11.2627V22H121.658V13.8701C121.531 13.9824 121.379 14.0898 121.204 14.1924C121.033 14.29 120.85 14.3804 120.654 14.4634C120.459 14.5415 120.256 14.6099 120.046 14.6685C119.836 14.7222 119.629 14.7612 119.424 14.7856V12.8374C120.024 12.6616 120.591 12.437 121.123 12.1636C121.655 11.8901 122.136 11.5898 122.566 11.2627H123.965Z" fill="white"/>
<path d="M81 0H5C2.23858 0 0 2.23858 0 5V27C0 29.7614 2.23858 32 5 32H81C83.7614 32 86 29.7614 86 27V5C86 2.23858 83.7614 0 81 0Z" fill="url(#paint0_linear_223_2)"/>
<defs>
<linearGradient id="paint0_linear_223_2" x1="0" y1="0" x2="0" y2="32" gradientUnits="userSpaceOnUse">
<stop stop-color="#BBBBBB" stop-opacity="0.1"/>
<stop offset="1" stop-opacity="0.1"/>
</linearGradient>
</defs>
</svg>
