<svg width="124" height="32" viewBox="0 0 124 32" fill="none" xmlns="http://www.w3.org/2000/svg">
<path d="M119 0H31V32H119C121.761 32 124 29.7614 124 27V5C124 2.23858 121.761 0 119 0Z" fill="#0F1418"/>
<path d="M31 0H5C2.23858 0 0 2.23858 0 5V27C0 29.7614 2.23858 32 5 32H31V0Z" fill="white"/>
<path d="M11.948 18.408L11.949 18.409L11.948 18.408ZM11.948 22.121V20.874C7.108 20.269 5.456 14.891 5.456 14.891C5.456 14.891 7.62 11.669 11.956 11.33V10.155C7.153 10.547 3 14.642 3 14.642C3 14.642 5.35 21.498 11.948 22.121Z" fill="#77B900"/>
<path d="M7.275 15.0531C7.275 15.0531 8.291 18.8891 11.948 19.5481V18.4081C9.89 17.7041 9.21 15.2741 9.21 15.2741C9.21 15.2741 10.412 13.8321 11.94 14.0191H11.948V12.7731C12.2123 12.7435 12.4782 12.7315 12.744 12.7371C15.252 12.7371 16.744 14.7051 16.744 14.7051L14.704 16.4331C13.794 14.8931 13.485 14.2161 11.957 14.0291V18.4091C12.328 18.5331 12.717 18.5961 13.115 18.5961C16.091 18.5961 18.865 14.7141 18.865 14.7141C18.865 14.7141 16.294 11.1881 12.372 11.3131H12.368C12.2278 11.3145 12.0878 11.3205 11.948 11.3311V12.7721L11.921 12.7751L11.944 12.7741C9.031 13.0951 7.275 15.0531 7.275 15.0531V15.0531Z" fill="#77B900"/>
<path d="M27 8H11.948V10.155L12.372 10.128C17.822 9.942 21.382 14.634 21.382 14.634C21.382 14.634 17.302 19.637 13.052 19.637C12.6849 19.636 12.3185 19.6032 11.957 19.539V20.874C12.257 20.909 12.567 20.937 12.867 20.937C16.824 20.937 19.687 18.898 22.46 16.494C22.919 16.868 24.8 17.767 25.19 18.159C22.557 20.385 16.418 22.175 12.937 22.175C12.602 22.175 12.284 22.157 11.966 22.122V24H27V8Z" fill="#77B900"/>
<path d="M53.5131 22H50.7958L49.1625 19.2974C49.0404 19.0923 48.9232 18.9092 48.8109 18.748C48.6986 18.5869 48.5839 18.4502 48.4667 18.3379C48.3544 18.2207 48.2347 18.1328 48.1078 18.0742C47.9857 18.0107 47.8514 17.979 47.705 17.979H47.0678V22H44.702V11.4971H48.452C51.0009 11.4971 52.2753 12.4492 52.2753 14.3535C52.2753 14.7197 52.2191 15.0591 52.1068 15.3716C51.9945 15.6792 51.8358 15.9575 51.6307 16.2065C51.4257 16.4556 51.1766 16.6704 50.8837 16.8511C50.5956 17.0317 50.2733 17.1733 49.9169 17.2759V17.3052C50.0731 17.354 50.2245 17.4346 50.371 17.5469C50.5175 17.6543 50.6591 17.7812 50.7958 17.9277C50.9325 18.0742 51.0619 18.2329 51.184 18.4038C51.3109 18.5698 51.4257 18.7334 51.5282 18.8945L53.5131 22ZM47.0678 13.2695V16.1919H48.0931C48.601 16.1919 49.0087 16.0454 49.3163 15.7524C49.6288 15.4546 49.785 15.0859 49.785 14.6465C49.785 13.7285 49.2357 13.2695 48.1371 13.2695H47.0678ZM61.7497 13.4233H58.7541V22H56.3811V13.4233H53.4001V11.4971H61.7497V13.4233ZM71.8906 22H69.0855L67.2764 18.5796C67.208 18.4526 67.1372 18.2183 67.064 17.8765H67.0347C67.0005 18.0376 66.9199 18.2817 66.793 18.6089L64.9766 22H62.1568L65.5039 16.7485L62.4424 11.4971H65.3208L66.8223 14.6465C66.9395 14.8955 67.0445 15.1909 67.1372 15.5327H67.1665C67.2251 15.3276 67.335 15.0225 67.4961 14.6172L69.166 11.4971H71.8028L68.6533 16.7046L71.8906 22ZM77.5241 21.6558V19.6416C78.2272 20.1543 79.0475 20.4106 79.985 20.4106C80.5758 20.4106 81.0348 20.2837 81.362 20.0298C81.694 19.7759 81.86 19.4219 81.86 18.9678C81.86 18.499 81.6549 18.1377 81.2448 17.8838C80.8395 17.6299 80.2804 17.5029 79.5675 17.5029H78.6227V15.7305H79.4943C80.8615 15.7305 81.5451 15.2764 81.5451 14.3682C81.5451 13.5137 81.0202 13.0864 79.9704 13.0864C79.2672 13.0864 78.5837 13.3135 77.9196 13.7676V11.8779C78.6569 11.5068 79.5163 11.3213 80.4977 11.3213C81.5719 11.3213 82.4069 11.563 83.0026 12.0464C83.6032 12.5298 83.9035 13.1572 83.9035 13.9287C83.9035 15.3008 83.2077 16.1602 81.8161 16.5068V16.5435C82.5583 16.6362 83.1442 16.9072 83.5739 17.3564C84.0036 17.8008 84.2184 18.3477 84.2184 18.9971C84.2184 19.9785 83.8595 20.7549 83.1418 21.3262C82.424 21.8975 81.4328 22.1831 80.1681 22.1831C79.0841 22.1831 78.2028 22.0073 77.5241 21.6558ZM89.518 22.1831C87.018 22.1831 85.768 20.4277 85.768 16.917C85.768 15.0957 86.105 13.709 86.7788 12.7568C87.4575 11.7998 88.4389 11.3213 89.7231 11.3213C92.1645 11.3213 93.3852 13.106 93.3852 16.6753C93.3852 18.4526 93.0508 19.8149 92.3818 20.7622C91.7178 21.7095 90.7632 22.1831 89.518 22.1831ZM89.6206 13.0864C88.6196 13.0864 88.1191 14.3438 88.1191 16.8584C88.1191 19.2266 88.6098 20.4106 89.5913 20.4106C90.5483 20.4106 91.0268 19.1899 91.0268 16.7485C91.0268 14.3071 90.5581 13.0864 89.6206 13.0864ZM95.2645 21.729V19.7515C95.9822 20.1909 96.7464 20.4106 97.5569 20.4106C98.1673 20.4106 98.6434 20.2666 98.9852 19.9785C99.3318 19.6855 99.5052 19.29 99.5052 18.792C99.5052 17.752 98.7703 17.2319 97.3006 17.2319C96.8221 17.2319 96.2435 17.2759 95.5647 17.3638V11.4971H101.38V13.3867H97.5423V15.4888C97.8499 15.4595 98.1404 15.4448 98.4139 15.4448C99.493 15.4448 100.338 15.728 100.948 16.2944C101.558 16.8608 101.864 17.6226 101.864 18.5796C101.864 19.6392 101.5 20.5059 100.772 21.1797C100.045 21.8486 99.0584 22.1831 97.8133 22.1831C96.8025 22.1831 95.9529 22.0317 95.2645 21.729ZM107.134 22.1831C104.634 22.1831 103.384 20.4277 103.384 16.917C103.384 15.0957 103.721 13.709 104.395 12.7568C105.073 11.7998 106.055 11.3213 107.339 11.3213C109.78 11.3213 111.001 13.106 111.001 16.6753C111.001 18.4526 110.667 19.8149 109.998 20.7622C109.334 21.7095 108.379 22.1831 107.134 22.1831ZM107.236 13.0864C106.235 13.0864 105.735 14.3438 105.735 16.8584C105.735 19.2266 106.226 20.4106 107.207 20.4106C108.164 20.4106 108.643 19.1899 108.643 16.7485C108.643 14.3071 108.174 13.0864 107.236 13.0864Z" fill="white"/>
<path d="M119 0H5C2.23858 0 0 2.23858 0 5V27C0 29.7614 2.23858 32 5 32H119C121.761 32 124 29.7614 124 27V5C124 2.23858 121.761 0 119 0Z" fill="url(#paint0_linear_223_9)"/>
<defs>
<linearGradient id="paint0_linear_223_9" x1="0" y1="0" x2="0" y2="32" gradientUnits="userSpaceOnUse">
<stop stop-color="#BBBBBB" stop-opacity="0.1"/>
<stop offset="1" stop-opacity="0.1"/>
</linearGradient>
</defs>
</svg>
