<svg width="156" height="32" viewBox="0 0 156 32" fill="none" xmlns="http://www.w3.org/2000/svg">
<path d="M151 0H31V32H151C153.761 32 156 29.7614 156 27V5C156 2.23858 153.761 0 151 0Z" fill="#0F1418"/>
<path d="M31 0H5C2.23858 0 0 2.23858 0 5V27C0 29.7614 2.23858 32 5 32H31V0Z" fill="white"/>
<path d="M17.6785 19.4485L13.427 23.7H7.29999V17.573L11.5515 13.3215V19.4485H17.6785ZM22.7 8.30005H7.38249L11.5515 12.469H18.531V19.4485L22.7 23.6175V8.30005Z" fill="black"/>
<path d="M49.837 22H47.1197L45.4864 19.2974C45.3643 19.0923 45.2471 18.9092 45.1348 18.748C45.0225 18.5869 44.9078 18.4502 44.7906 18.3379C44.6783 18.2207 44.5587 18.1328 44.4317 18.0742C44.3096 18.0107 44.1754 17.979 44.0289 17.979H43.3917V22H41.026V11.4971H44.776C47.3248 11.4971 48.5992 12.4492 48.5992 14.3535C48.5992 14.7197 48.543 15.0591 48.4307 15.3716C48.3184 15.6792 48.1597 15.9575 47.9547 16.2065C47.7496 16.4556 47.5006 16.6704 47.2076 16.8511C46.9195 17.0317 46.5972 17.1733 46.2408 17.2759V17.3052C46.397 17.354 46.5484 17.4346 46.6949 17.5469C46.8414 17.6543 46.983 17.7812 47.1197 17.9277C47.2564 18.0742 47.3858 18.2329 47.5079 18.4038C47.6348 18.5698 47.7496 18.7334 47.8521 18.8945L49.837 22ZM43.3917 13.2695V16.1919H44.4171C44.9249 16.1919 45.3326 16.0454 45.6402 15.7524C45.9527 15.4546 46.109 15.0859 46.109 14.6465C46.109 13.7285 45.5596 13.2695 44.461 13.2695H43.3917ZM57.9198 14.5L54.8729 22.6006C54.1405 24.5488 53.037 25.5229 51.5624 25.5229C51.0009 25.5229 50.5395 25.4595 50.1781 25.3325V23.4868C50.4857 23.6675 50.8202 23.7578 51.1815 23.7578C51.7772 23.7578 52.1923 23.4771 52.4267 22.9155L52.8222 21.9854L49.7753 14.5H52.3388L53.7377 19.063C53.8256 19.3462 53.8939 19.6807 53.9428 20.0664H53.9721C54.016 19.7832 54.0966 19.4536 54.2138 19.0776L55.6273 14.5H57.9198ZM64.9699 22H58.239V21.0405L62.0036 16.2065H58.6125V14.5H64.9406V15.6426L61.3737 20.2935H64.9699V22ZM73.1407 18.9092H68.2481C68.3262 19.998 69.0122 20.5425 70.3062 20.5425C71.1314 20.5425 71.8565 20.3472 72.4815 19.9565V21.6265C71.7881 21.9976 70.8872 22.1831 69.7788 22.1831C68.5679 22.1831 67.628 21.8486 66.959 21.1797C66.2901 20.5059 65.9556 19.5684 65.9556 18.3672C65.9556 17.1221 66.3169 16.1357 67.0396 15.4082C67.7622 14.6807 68.6509 14.3169 69.7056 14.3169C70.7994 14.3169 71.6441 14.6416 72.2398 15.291C72.8404 15.9404 73.1407 16.8218 73.1407 17.9351V18.9092ZM70.9947 17.4883C70.9947 16.4141 70.5601 15.877 69.691 15.877C69.3199 15.877 68.9976 16.0308 68.7242 16.3384C68.4556 16.646 68.292 17.0293 68.2334 17.4883H70.9947ZM81.9413 22H79.6341V17.8325C79.6341 16.6704 79.2191 16.0894 78.389 16.0894C77.9886 16.0894 77.659 16.2432 77.4003 16.5508C77.1415 16.8584 77.0121 17.249 77.0121 17.7227V22H74.6976V14.5H77.0121V15.6865H77.0414C77.5931 14.7734 78.3963 14.3169 79.451 14.3169C81.1112 14.3169 81.9413 15.3472 81.9413 17.4077V22ZM88.5122 21.729V19.7515C89.23 20.1909 89.9941 20.4106 90.8047 20.4106C91.415 20.4106 91.8911 20.2666 92.2329 19.9785C92.5796 19.6855 92.7529 19.29 92.7529 18.792C92.7529 17.752 92.0181 17.2319 90.5483 17.2319C90.0698 17.2319 89.4912 17.2759 88.8125 17.3638V11.4971H94.6279V13.3867H90.79V15.4888C91.0977 15.4595 91.3882 15.4448 91.6616 15.4448C92.7407 15.4448 93.5854 15.728 94.1958 16.2944C94.8062 16.8608 95.1113 17.6226 95.1113 18.5796C95.1113 19.6392 94.7476 20.5059 94.02 21.1797C93.2925 21.8486 92.3062 22.1831 91.061 22.1831C90.0503 22.1831 89.2007 22.0317 88.5122 21.729ZM101.646 21.729V19.7515C102.363 20.1909 103.128 20.4106 103.938 20.4106C104.548 20.4106 105.025 20.2666 105.366 19.9785C105.713 19.6855 105.886 19.29 105.886 18.792C105.886 17.752 105.152 17.2319 103.682 17.2319C103.203 17.2319 102.625 17.2759 101.946 17.3638V11.4971H107.761V13.3867H103.923V15.4888C104.231 15.4595 104.522 15.4448 104.795 15.4448C105.874 15.4448 106.719 15.728 107.329 16.2944C107.94 16.8608 108.245 17.6226 108.245 18.5796C108.245 19.6392 107.881 20.5059 107.153 21.1797C106.426 21.8486 105.44 22.1831 104.194 22.1831C103.184 22.1831 102.334 22.0317 101.646 21.729ZM116.635 11.6069V13.5405C116.103 13.2378 115.522 13.0864 114.892 13.0864C114.116 13.0864 113.488 13.3843 113.01 13.98C112.536 14.5708 112.29 15.3643 112.27 16.3604H112.314C112.817 15.6182 113.552 15.2471 114.519 15.2471C115.397 15.2471 116.093 15.5449 116.606 16.1406C117.123 16.7363 117.382 17.5249 117.382 18.5063C117.382 19.561 117.04 20.4375 116.357 21.1357C115.673 21.834 114.804 22.1831 113.749 22.1831C112.568 22.1831 111.645 21.7559 110.981 20.9014C110.317 20.0469 109.985 18.8481 109.985 17.3052C109.985 15.4888 110.412 14.0386 111.267 12.9546C112.121 11.8657 113.281 11.3213 114.746 11.3213C115.556 11.3213 116.186 11.4165 116.635 11.6069ZM113.735 16.9609C113.31 16.9609 112.971 17.1099 112.717 17.4077C112.468 17.7056 112.343 18.0864 112.343 18.5503C112.343 19.063 112.47 19.5024 112.724 19.8687C112.983 20.23 113.325 20.4106 113.749 20.4106C114.165 20.4106 114.497 20.2495 114.746 19.9272C114.995 19.6001 115.119 19.1753 115.119 18.6528C115.119 17.5249 114.658 16.9609 113.735 16.9609ZM122.323 22.1831C119.823 22.1831 118.573 20.4277 118.573 16.917C118.573 15.0957 118.91 13.709 119.584 12.7568C120.262 11.7998 121.244 11.3213 122.528 11.3213C124.97 11.3213 126.19 13.106 126.19 16.6753C126.19 18.4526 125.856 19.8149 125.187 20.7622C124.523 21.7095 123.568 22.1831 122.323 22.1831ZM122.426 13.0864C121.425 13.0864 120.924 14.3438 120.924 16.8584C120.924 19.2266 121.415 20.4106 122.396 20.4106C123.353 20.4106 123.832 19.1899 123.832 16.7485C123.832 14.3071 123.363 13.0864 122.426 13.0864ZM131.131 22.1831C128.631 22.1831 127.381 20.4277 127.381 16.917C127.381 15.0957 127.718 13.709 128.392 12.7568C129.07 11.7998 130.052 11.3213 131.336 11.3213C133.777 11.3213 134.998 13.106 134.998 16.6753C134.998 18.4526 134.664 19.8149 133.995 20.7622C133.331 21.7095 132.376 22.1831 131.131 22.1831ZM131.233 13.0864C130.233 13.0864 129.732 14.3438 129.732 16.8584C129.732 19.2266 130.223 20.4106 131.204 20.4106C132.161 20.4106 132.64 19.1899 132.64 16.7485C132.64 14.3071 132.171 13.0864 131.233 13.0864ZM145.967 22H143.594V17.7227H139.243V22H136.877V11.4971H139.243V15.6865H143.594V11.4971H145.967V22Z" fill="white"/>
<path d="M151 0H5C2.23858 0 0 2.23858 0 5V27C0 29.7614 2.23857 32 5 32H151C153.761 32 156 29.7614 156 27V5C156 2.23858 153.761 0 151 0Z" fill="url(#paint0_linear_225_2)"/>
<defs>
<linearGradient id="paint0_linear_225_2" x1="0" y1="0" x2="0" y2="32" gradientUnits="userSpaceOnUse">
<stop stop-color="#BBBBBB" stop-opacity="0.1"/>
<stop offset="1" stop-opacity="0.1"/>
</linearGradient>
</defs>
</svg>
