<svg width="134" height="32" viewBox="0 0 134 32" fill="none" xmlns="http://www.w3.org/2000/svg">
<path d="M129 0H31V32H129C131.761 32 134 29.7614 134 27V5C134 2.23858 131.761 0 129 0Z" fill="#0F1418"/>
<path d="M31 0H5C2.23858 0 0 2.23858 0 5V27C0 29.7614 2.23858 32 5 32H31V0Z" fill="#0067B8"/>
<path d="M4.32258 8.02991L14.0658 6.7875V15.4991H4.32258V8.02991ZM4.32258 23.9701L14.0658 25.2125V16.6089H4.32258V23.9701ZM15.1377 25.3451L28.0968 27V16.6089H15.1377V25.3451ZM15.1377 6.65491V15.4991H28.0968V5L15.1377 6.65491Z" fill="white"/>
<path d="M54.2061 11.4971L51.4302 22H48.8082L47.065 15.2617C46.9722 14.9102 46.9161 14.5171 46.8965 14.0825H46.8672C46.8233 14.561 46.7598 14.9541 46.6768 15.2617L44.8897 22H42.1578L39.3965 11.4971H41.982L43.4615 18.4917C43.525 18.7896 43.5713 19.1899 43.6006 19.6929H43.6446C43.6641 19.3169 43.7349 18.9067 43.857 18.4624L45.7613 11.4971H48.2955L50.0167 18.5503C50.0801 18.8091 50.1363 19.1851 50.1851 19.6782H50.2144C50.2339 19.2925 50.2852 18.9019 50.3682 18.5063L51.8184 11.4971H54.2061ZM56.6639 13.3135C56.2733 13.3135 55.9535 13.1987 55.7045 12.9692C55.4554 12.7349 55.3309 12.4492 55.3309 12.1123C55.3309 11.7656 55.4554 11.4824 55.7045 11.2627C55.9535 11.043 56.2733 10.9331 56.6639 10.9331C57.0595 10.9331 57.3793 11.043 57.6234 11.2627C57.8724 11.4824 57.997 11.7656 57.997 12.1123C57.997 12.4639 57.8724 12.752 57.6234 12.9766C57.3793 13.2012 57.0595 13.3135 56.6639 13.3135ZM57.8065 22H55.4921V14.5H57.8065V22ZM67.1784 22H64.8713V17.8325C64.8713 16.6704 64.4562 16.0894 63.6262 16.0894C63.2258 16.0894 62.8962 16.2432 62.6374 16.5508C62.3786 16.8584 62.2492 17.249 62.2492 17.7227V22H59.9348V14.5H62.2492V15.6865H62.2785C62.8303 14.7734 63.6335 14.3169 64.6882 14.3169C66.3483 14.3169 67.1784 15.3472 67.1784 17.4077V22ZM76.5357 22H74.2212V20.9673H74.1919C73.6646 21.7778 72.8906 22.1831 71.8701 22.1831C70.9326 22.1831 70.1782 21.8535 69.607 21.1943C69.0357 20.5303 68.75 19.605 68.75 18.4185C68.75 17.1782 69.065 16.1846 69.6948 15.4375C70.3247 14.6904 71.1499 14.3169 72.1704 14.3169C73.1372 14.3169 73.8111 14.6636 74.1919 15.3569H74.2212V10.8965H76.5357V22ZM74.2652 18.3525V17.7886C74.2652 17.3003 74.1236 16.895 73.8404 16.5728C73.5571 16.2505 73.1885 16.0894 72.7344 16.0894C72.2217 16.0894 71.8213 16.292 71.5332 16.6973C71.2451 17.0977 71.1011 17.6494 71.1011 18.3525C71.1011 19.0117 71.2403 19.5195 71.5186 19.876C71.7969 20.2324 72.1826 20.4106 72.6758 20.4106C73.1446 20.4106 73.5254 20.2227 73.8184 19.8467C74.1162 19.4707 74.2652 18.9727 74.2652 18.3525ZM82.2381 22.1831C80.9881 22.1831 80.0042 21.834 79.2865 21.1357C78.5736 20.4326 78.2171 19.4805 78.2171 18.2793C78.2171 17.0391 78.5882 16.0698 79.3304 15.3716C80.0726 14.6685 81.076 14.3169 82.3407 14.3169C83.5858 14.3169 84.5623 14.6685 85.2704 15.3716C85.9784 16.0698 86.3324 16.9951 86.3324 18.1475C86.3324 19.3926 85.9662 20.3765 85.2337 21.0991C84.5062 21.8218 83.5077 22.1831 82.2381 22.1831ZM82.2967 16.0894C81.7498 16.0894 81.325 16.2773 81.0223 16.6533C80.7196 17.0293 80.5682 17.5615 80.5682 18.25C80.5682 19.6904 81.1493 20.4106 82.3114 20.4106C83.4198 20.4106 83.974 19.6709 83.974 18.1914C83.974 16.79 83.4149 16.0894 82.2967 16.0894ZM98.8756 14.5L96.715 22H94.2834L93.1774 17.6055C93.1042 17.3125 93.0627 16.9927 93.0529 16.646H93.0089C92.9748 17.0269 92.9259 17.3369 92.8625 17.5762L91.6759 22H89.2736L87.1569 14.5H89.5153L90.548 19.3926C90.5968 19.6221 90.6335 19.9004 90.6579 20.2275H90.7018C90.7262 19.8857 90.7702 19.5977 90.8337 19.3633L92.1227 14.5H94.3273L95.4845 19.3926C95.5138 19.5146 95.548 19.7979 95.5871 20.2422H95.6383C95.6628 19.959 95.7018 19.6758 95.7555 19.3926L96.7296 14.5H98.8756ZM99.6709 21.8022V19.9272C100.052 20.1567 100.43 20.3276 100.806 20.4399C101.187 20.5522 101.546 20.6084 101.883 20.6084C102.293 20.6084 102.615 20.5522 102.85 20.4399C103.089 20.3276 103.208 20.1567 103.208 19.9272C103.208 19.7808 103.155 19.6587 103.047 19.561C102.94 19.4634 102.801 19.3779 102.63 19.3047C102.464 19.2314 102.281 19.1655 102.081 19.1069C101.88 19.0483 101.687 18.9824 101.502 18.9092C101.204 18.7969 100.94 18.6772 100.711 18.5503C100.486 18.4185 100.296 18.2671 100.14 18.0962C99.9883 17.9253 99.8711 17.7275 99.7881 17.5029C99.7099 17.2783 99.6709 17.0122 99.6709 16.7046C99.6709 16.2847 99.7612 15.9233 99.9419 15.6206C100.127 15.3179 100.372 15.0713 100.674 14.8809C100.982 14.6855 101.331 14.5439 101.722 14.4561C102.117 14.3633 102.527 14.3169 102.952 14.3169C103.284 14.3169 103.621 14.3438 103.963 14.3975C104.305 14.4463 104.642 14.5195 104.974 14.6172V16.4043C104.681 16.2334 104.366 16.1064 104.029 16.0234C103.697 15.9355 103.37 15.8916 103.047 15.8916C102.896 15.8916 102.752 15.9062 102.615 15.9355C102.483 15.96 102.366 15.999 102.264 16.0527C102.161 16.1016 102.081 16.1675 102.022 16.2505C101.963 16.3286 101.934 16.4189 101.934 16.5215C101.934 16.6582 101.978 16.7754 102.066 16.873C102.154 16.9707 102.269 17.0562 102.41 17.1294C102.552 17.1978 102.708 17.2612 102.879 17.3198C103.055 17.3735 103.228 17.4297 103.399 17.4883C103.707 17.5957 103.985 17.7129 104.234 17.8398C104.483 17.9668 104.695 18.1157 104.871 18.2866C105.052 18.4575 105.188 18.6577 105.281 18.8872C105.379 19.1167 105.428 19.3901 105.428 19.7075C105.428 20.1519 105.33 20.5327 105.135 20.8501C104.944 21.1626 104.688 21.4189 104.366 21.6191C104.048 21.8145 103.68 21.9561 103.26 22.0439C102.845 22.1367 102.413 22.1831 101.963 22.1831C101.138 22.1831 100.374 22.0562 99.6709 21.8022ZM118.188 22H111.545V20.1689H113.72V13.6284L111.486 14.1118V12.2368L116.027 11.3213V20.1689H118.188V22ZM126.996 22H120.352V20.1689H122.528V13.6284L120.294 14.1118V12.2368L124.835 11.3213V20.1689H126.996V22Z" fill="white"/>
<path d="M129 0H5C2.23858 0 0 2.23858 0 5V27C0 29.7614 2.23858 32 5 32H129C131.761 32 134 29.7614 134 27V5C134 2.23858 131.761 0 129 0Z" fill="url(#paint0_linear_223_2)"/>
<defs>
<linearGradient id="paint0_linear_223_2" x1="0" y1="0" x2="0" y2="32" gradientUnits="userSpaceOnUse">
<stop stop-color="#BBBBBB" stop-opacity="0.1"/>
<stop offset="1" stop-opacity="0.1"/>
</linearGradient>
</defs>
</svg>
